<svg xmlns="http://www.w3.org/2000/svg" width="1600" height="760" viewBox="0 0 1600 760" fill="none">
  <defs>
    <linearGradient id="bg" x1="0" y1="0" x2="1600" y2="760" gradientUnits="userSpaceOnUse">
      <stop stop-color="#F7F1E4"/>
      <stop offset="1" stop-color="#EEE4D1"/>
    </linearGradient>
    <filter id="shadow" x="-20%" y="-20%" width="140%" height="140%">
      <feDropShadow dx="0" dy="20" stdDeviation="32" flood-color="#2D352C" flood-opacity=".10"/>
    </filter>
  </defs>
  <rect width="1600" height="760" rx="40" fill="url(#bg)"/>
  <circle cx="1340" cy="120" r="210" fill="#DCE7D9"/>
  <circle cx="1450" cy="680" r="280" fill="#E7D7B9"/>
  <path d="M0 610C260 510 430 715 710 610C1030 490 1190 560 1600 450V760H0V610Z" fill="#F0E9DA"/>

  <g transform="translate(105 105)">
    <g>
      <rect width="72" height="72" rx="24" fill="#223126"/>
      <rect x="17" y="17" width="12" height="38" rx="6" fill="#DDE7D9"/>
      <rect x="33" y="17" width="12" height="38" rx="6" fill="#F4D8A5"/>
      <rect x="49" y="17" width="12" height="38" rx="6" fill="#D9C7E8"/>
    </g>
    <text x="98" y="54" font-family="Inter,Segoe UI,sans-serif" font-size="54" font-weight="800" letter-spacing="-2.5" fill="#1D241E">ramu</text>
  </g>

  <text x="105" y="300" font-family="Inter,Segoe UI,sans-serif" font-size="84" font-weight="800" letter-spacing="-4.6" fill="#1D241E">ChatGPT yang sudah</text>
  <text x="105" y="390" font-family="Inter,Segoe UI,sans-serif" font-size="84" font-weight="800" letter-spacing="-4.6" fill="#1D241E">ngerti konteks kuliahmu.</text>
  <text x="108" y="455" font-family="Inter,Segoe UI,sans-serif" font-size="28" font-weight="500" fill="#626B61">Workspace kuliah berbasis Projects — rapi per mata kuliah,</text>
  <text x="108" y="493" font-family="Inter,Segoe UI,sans-serif" font-size="28" font-weight="500" fill="#626B61">sumber jelas, dan lebih gampang dipakai.</text>

  <g transform="translate(108 520)">
    <rect width="126" height="44" rx="22" fill="#223126"/>
    <text x="63" y="29" text-anchor="middle" font-family="Inter,Segoe UI,sans-serif" font-size="17" font-weight="700" fill="#F8F5ED">UT · S2</text>
    <rect x="140" width="172" height="44" rx="22" fill="#F8F4EB" stroke="#CABFAE"/>
    <text x="226" y="29" text-anchor="middle" font-family="Inter,Segoe UI,sans-serif" font-size="17" font-weight="700" fill="#334038">5 mata kuliah</text>
    <rect x="326" width="188" height="44" rx="22" fill="#F8F4EB" stroke="#CABFAE"/>
    <text x="420" y="29" text-anchor="middle" font-family="Inter,Segoe UI,sans-serif" font-size="17" font-weight="700" fill="#334038">mobile-first</text>
  </g>

  <g transform="translate(990 155)" filter="url(#shadow)">
    <rect width="420" height="485" rx="36" fill="#FCFAF5" stroke="#D6CCBB"/>
    <rect x="24" y="24" width="372" height="54" rx="18" fill="#F1ECE1"/>
    <circle cx="53" cy="51" r="12" fill="#223126"/>
    <text x="78" y="58" font-family="Inter,Segoe UI,sans-serif" font-size="17" font-weight="700" fill="#2B342D">S2 • AKM I</text>
    <text x="30" y="124" font-family="Inter,Segoe UI,sans-serif" font-size="14" font-weight="700" fill="#7A8278">PROJECT SOURCES</text>
    <rect x="30" y="145" width="360" height="66" rx="16" fill="#EEF3EC"/>
    <text x="52" y="173" font-family="Inter,Segoe UI,sans-serif" font-size="15" font-weight="700" fill="#263229">Course pack AKM I</text>
    <text x="52" y="194" font-family="Inter,Segoe UI,sans-serif" font-size="13" fill="#657065">konteks · verifier · sumber</text>
    <rect x="30" y="223" width="360" height="66" rx="16" fill="#F5EFE4"/>
    <text x="52" y="251" font-family="Inter,Segoe UI,sans-serif" font-size="15" font-weight="700" fill="#3C352C">BMP / materi kelas</text>
    <text x="52" y="272" font-family="Inter,Segoe UI,sans-serif" font-size="13" fill="#766D61">ditambahkan saat diperlukan</text>
    <text x="30" y="334" font-family="Inter,Segoe UI,sans-serif" font-size="14" font-weight="700" fill="#7A8278">KAMU TINGGAL NGETIK</text>
    <rect x="30" y="355" width="315" height="74" rx="20" fill="#223126"/>
    <text x="52" y="383" font-family="Inter,Segoe UI,sans-serif" font-size="15" font-weight="600" fill="#FAF8F2">“aku nggak paham bagian ini,</text>
    <text x="52" y="405" font-family="Inter,Segoe UI,sans-serif" font-size="15" font-weight="600" fill="#FAF8F2">jelasin pelan-pelan”</text>
    <circle cx="365" cy="392" r="20" fill="#E6D7B9"/>
    <path d="M358 392h14M367 385l7 7-7 7" stroke="#253128" stroke-width="2.2" stroke-linecap="round" stroke-linejoin="round"/>
  </g>

  <g transform="translate(104 665)">
    <text x="0" y="0" font-family="Inter,Segoe UI,sans-serif" font-size="14" font-weight="800" letter-spacing="2.5" fill="#687268">REFERENSI</text>
    <text x="175" y="0" font-family="Inter,Segoe UI,sans-serif" font-size="14" font-weight="800" letter-spacing="2.5" fill="#687268">INSTRUKSI</text>
    <text x="335" y="0" font-family="Inter,Segoe UI,sans-serif" font-size="14" font-weight="800" letter-spacing="2.5" fill="#687268">ZONA KONTEKS</text>
    <text x="545" y="0" font-family="Inter,Segoe UI,sans-serif" font-size="14" font-weight="800" letter-spacing="2.5" fill="#687268">MATERI</text>
    <text x="670" y="0" font-family="Inter,Segoe UI,sans-serif" font-size="14" font-weight="800" letter-spacing="2.5" fill="#687268">ASESMEN</text>
  </g>
</svg>